<mxfile host="app.diagrams.net" agent="Mozilla/5.0 (Windows NT 10.0; Win64; x64; rv:131.0) Gecko/20100101 Firefox/131.0" version="24.7.17">
  <diagram id="C5RBs43oDa-KdzZeNtuy" name="Page-1">
    <mxGraphModel dx="1434" dy="1963" grid="1" gridSize="10" guides="1" tooltips="1" connect="1" arrows="1" fold="1" page="1" pageScale="1" pageWidth="827" pageHeight="1169" math="0" shadow="0">
      <root>
        <mxCell id="WIyWlLk6GJQsqaUBKTNV-0" />
        <mxCell id="WIyWlLk6GJQsqaUBKTNV-1" parent="WIyWlLk6GJQsqaUBKTNV-0" />
        <mxCell id="OsRb2LOzav058uSs1qAo-25" style="edgeStyle=orthogonalEdgeStyle;rounded=0;orthogonalLoop=1;jettySize=auto;html=1;exitX=0.5;exitY=1;exitDx=0;exitDy=0;" edge="1" parent="WIyWlLk6GJQsqaUBKTNV-1">
          <mxGeometry relative="1" as="geometry">
            <mxPoint x="1085" y="257" as="targetPoint" />
            <mxPoint x="1085" y="267" as="sourcePoint" />
          </mxGeometry>
        </mxCell>
        <mxCell id="OsRb2LOzav058uSs1qAo-57" value="&lt;p style=&quot;margin:0px;margin-top:4px;text-align:center;&quot;&gt;&lt;i&gt;&amp;lt;&amp;lt;Interface&amp;gt;&amp;gt;&lt;/i&gt;&lt;/p&gt;&lt;p style=&quot;margin:0px;margin-top:4px;text-align:center;&quot;&gt;&lt;b&gt;LIVRO&lt;/b&gt;&lt;br&gt;&lt;/p&gt;&lt;hr size=&quot;1&quot; style=&quot;border-style:solid;&quot;&gt;&lt;p style=&quot;margin:0px;margin-left:4px;&quot;&gt;+ Título: String&lt;br&gt;+ Autor: String&lt;/p&gt;&lt;p style=&quot;margin:0px;margin-left:4px;&quot;&gt;+ ISBN: String&lt;br&gt;&lt;/p&gt;&lt;p style=&quot;margin:0px;margin-left:4px;&quot;&gt;+ Categoria: String&lt;br&gt;&lt;/p&gt;&lt;p style=&quot;margin:0px;margin-left:4px;&quot;&gt;+ Disponibilidade: Boolean&lt;br&gt;&lt;/p&gt;&lt;hr size=&quot;1&quot; style=&quot;border-style:solid;&quot;&gt;&lt;p style=&quot;margin:0px;margin-left:4px;&quot;&gt;+ Registrar&amp;nbsp; (Livro): Void&lt;br&gt;&lt;/p&gt;&lt;p style=&quot;margin:0px;margin-left:4px;&quot;&gt;+ Emprestar&amp;nbsp; (Livro): Void&lt;br&gt;+ Devolver&amp;nbsp; ( Livro): Void&lt;/p&gt;" style="verticalAlign=top;align=left;overflow=fill;html=1;whiteSpace=wrap;strokeColor=default;fontFamily=Helvetica;fontSize=12;fontColor=default;fillColor=default;" vertex="1" parent="WIyWlLk6GJQsqaUBKTNV-1">
          <mxGeometry x="760" y="-80" width="160" height="190" as="geometry" />
        </mxCell>
        <mxCell id="OsRb2LOzav058uSs1qAo-60" value="&lt;p style=&quot;margin:0px;margin-top:4px;text-align:center;&quot;&gt;&lt;i&gt;&amp;lt;&amp;lt;Interface&amp;gt;&amp;gt;&lt;/i&gt;&lt;/p&gt;&lt;p style=&quot;margin:0px;margin-top:4px;text-align:center;&quot;&gt;&lt;b&gt;UTILIZADOR&lt;/b&gt;&lt;br&gt;&lt;/p&gt;&lt;hr size=&quot;1&quot; style=&quot;border-style:solid;&quot;&gt;&lt;p style=&quot;margin:0px;margin-left:4px;&quot;&gt;+ Nome: String&lt;br&gt;+ Endereço: String&lt;/p&gt;&lt;p style=&quot;margin:0px;margin-left:4px;&quot;&gt;+ Telefone: String&lt;/p&gt;&lt;hr size=&quot;1&quot; style=&quot;border-style:solid;&quot;&gt;&lt;p style=&quot;margin:0px;margin-left:4px;&quot;&gt;+ Consultar disponibilidade (Livro livro): Boolean&lt;br&gt;&lt;br&gt;&lt;/p&gt;" style="verticalAlign=top;align=left;overflow=fill;html=1;whiteSpace=wrap;strokeColor=default;fontFamily=Helvetica;fontSize=12;fontColor=default;fillColor=default;" vertex="1" parent="WIyWlLk6GJQsqaUBKTNV-1">
          <mxGeometry x="440" y="160" width="160" height="150" as="geometry" />
        </mxCell>
        <mxCell id="OsRb2LOzav058uSs1qAo-63" value="&lt;p style=&quot;margin:0px;margin-top:4px;text-align:center;&quot;&gt;&lt;i&gt;&amp;lt;&amp;lt;Interface&amp;gt;&amp;gt;&lt;/i&gt;&lt;/p&gt;&lt;p style=&quot;margin:0px;margin-top:4px;text-align:center;&quot;&gt;&lt;b&gt;EMPRESTIMO&lt;/b&gt;&lt;br&gt;&lt;/p&gt;&lt;hr size=&quot;1&quot; style=&quot;border-style:solid;&quot;&gt;&lt;p style=&quot;margin:0px;margin-left:4px;&quot;&gt;+ Data emprestimo: Date&lt;br&gt;+ Data devolução: Date&lt;/p&gt;&lt;p style=&quot;margin:0px;margin-left:4px;&quot;&gt;+ Status: String&lt;br&gt;&lt;/p&gt;&lt;hr size=&quot;1&quot; style=&quot;border-style:solid;&quot;&gt;&lt;p style=&quot;margin:0px;margin-left:4px;&quot;&gt;+ Criar empréstimo (utilizador utilizador, livro livro): Void &lt;br&gt;&lt;/p&gt;&lt;p style=&quot;margin:0px;margin-left:4px;&quot;&gt;+ Finalizar empréstimo (): Void &lt;br&gt;&lt;/p&gt;" style="verticalAlign=top;align=left;overflow=fill;html=1;whiteSpace=wrap;strokeColor=default;fontFamily=Helvetica;fontSize=12;fontColor=default;fillColor=default;" vertex="1" parent="WIyWlLk6GJQsqaUBKTNV-1">
          <mxGeometry x="420" y="-250" width="180" height="160" as="geometry" />
        </mxCell>
        <mxCell id="OsRb2LOzav058uSs1qAo-65" value="&lt;p style=&quot;margin:0px;margin-top:4px;text-align:center;&quot;&gt;&lt;i&gt;&amp;lt;&amp;lt;Interface&amp;gt;&amp;gt;&lt;/i&gt;&lt;/p&gt;&lt;p style=&quot;margin:0px;margin-top:4px;text-align:center;&quot;&gt;&lt;b&gt;BIBLIOTECARIO&lt;/b&gt;&lt;br&gt;&lt;/p&gt;&lt;hr size=&quot;1&quot; style=&quot;border-style:solid;&quot;&gt;&lt;p style=&quot;margin:0px;margin-left:4px;&quot;&gt;+ ID Funcionário: String&lt;br&gt;&lt;br&gt;&lt;/p&gt;&lt;hr size=&quot;1&quot; style=&quot;border-style:solid;&quot;&gt;&lt;p style=&quot;margin:0px;margin-left:4px;&quot;&gt;+ Registrar livro (Livro livro): Void&lt;br&gt;+ Gerar relatório(): &lt;br&gt;&lt;/p&gt;" style="verticalAlign=top;align=left;overflow=fill;html=1;whiteSpace=wrap;strokeColor=default;fontFamily=Helvetica;fontSize=12;fontColor=default;fillColor=default;" vertex="1" parent="WIyWlLk6GJQsqaUBKTNV-1">
          <mxGeometry x="1080" y="160" width="190" height="140" as="geometry" />
        </mxCell>
        <mxCell id="OsRb2LOzav058uSs1qAo-67" value="&lt;p style=&quot;margin:0px;margin-top:4px;text-align:center;&quot;&gt;&lt;i&gt;&amp;lt;&amp;lt;Interface&amp;gt;&amp;gt;&lt;/i&gt;&lt;/p&gt;&lt;p style=&quot;margin:0px;margin-top:4px;text-align:center;&quot;&gt;&lt;b&gt;RELATORIO&lt;/b&gt;&lt;br&gt;&lt;/p&gt;&lt;hr size=&quot;1&quot; style=&quot;border-style:solid;&quot;&gt;&lt;p style=&quot;margin:0px;margin-left:4px;&quot;&gt;+ Livros emprestados: List&lt;br&gt;+ Livros devolvidos: List&lt;/p&gt;&lt;hr size=&quot;1&quot; style=&quot;border-style:solid;&quot;&gt;&lt;p style=&quot;margin:0px;margin-left:4px;&quot;&gt;+ Gerar relatorio de empréstimo(): Void &lt;br&gt;+ Gerar relatoruio de devolução (): Void&lt;/p&gt;" style="verticalAlign=top;align=left;overflow=fill;html=1;whiteSpace=wrap;strokeColor=default;fontFamily=Helvetica;fontSize=12;fontColor=default;fillColor=default;" vertex="1" parent="WIyWlLk6GJQsqaUBKTNV-1">
          <mxGeometry x="1080" y="-220" width="220" height="140" as="geometry" />
        </mxCell>
        <mxCell id="OsRb2LOzav058uSs1qAo-98" value="" style="endArrow=none;html=1;edgeStyle=orthogonalEdgeStyle;rounded=0;fontFamily=Helvetica;fontSize=12;fontColor=default;exitX=0.413;exitY=1.011;exitDx=0;exitDy=0;exitPerimeter=0;" edge="1" parent="WIyWlLk6GJQsqaUBKTNV-1" source="OsRb2LOzav058uSs1qAo-57">
          <mxGeometry relative="1" as="geometry">
            <mxPoint x="827" y="130" as="sourcePoint" />
            <mxPoint x="1080" y="240" as="targetPoint" />
            <Array as="points">
              <mxPoint x="826" y="160" />
              <mxPoint x="907" y="160" />
              <mxPoint x="907" y="240" />
            </Array>
          </mxGeometry>
        </mxCell>
        <mxCell id="OsRb2LOzav058uSs1qAo-99" value="parent" style="edgeLabel;resizable=0;html=1;align=left;verticalAlign=bottom;strokeColor=default;fontFamily=Helvetica;fontSize=12;fontColor=default;fillColor=default;" connectable="0" vertex="1" parent="OsRb2LOzav058uSs1qAo-98">
          <mxGeometry x="-1" relative="1" as="geometry">
            <mxPoint x="13" y="30" as="offset" />
          </mxGeometry>
        </mxCell>
        <mxCell id="OsRb2LOzav058uSs1qAo-100" value="child" style="edgeLabel;resizable=0;html=1;align=right;verticalAlign=bottom;strokeColor=default;fontFamily=Helvetica;fontSize=12;fontColor=default;fillColor=default;" connectable="0" vertex="1" parent="OsRb2LOzav058uSs1qAo-98">
          <mxGeometry x="1" relative="1" as="geometry">
            <mxPoint x="-27" as="offset" />
          </mxGeometry>
        </mxCell>
        <mxCell id="OsRb2LOzav058uSs1qAo-101" value="" style="endArrow=none;html=1;edgeStyle=orthogonalEdgeStyle;rounded=0;fontFamily=Helvetica;fontSize=12;fontColor=default;exitX=0.439;exitY=1.013;exitDx=0;exitDy=0;exitPerimeter=0;entryX=0.5;entryY=0;entryDx=0;entryDy=0;" edge="1" parent="WIyWlLk6GJQsqaUBKTNV-1" source="OsRb2LOzav058uSs1qAo-63" target="OsRb2LOzav058uSs1qAo-60">
          <mxGeometry relative="1" as="geometry">
            <mxPoint x="430" y="14.5" as="sourcePoint" />
            <mxPoint x="590" y="14.5" as="targetPoint" />
          </mxGeometry>
        </mxCell>
        <mxCell id="OsRb2LOzav058uSs1qAo-102" value="parent" style="edgeLabel;resizable=0;html=1;align=left;verticalAlign=bottom;strokeColor=default;fontFamily=Helvetica;fontSize=12;fontColor=default;fillColor=default;" connectable="0" vertex="1" parent="OsRb2LOzav058uSs1qAo-101">
          <mxGeometry x="-1" relative="1" as="geometry">
            <mxPoint y="28" as="offset" />
          </mxGeometry>
        </mxCell>
        <mxCell id="OsRb2LOzav058uSs1qAo-103" value="child" style="edgeLabel;resizable=0;html=1;align=right;verticalAlign=bottom;strokeColor=default;fontFamily=Helvetica;fontSize=12;fontColor=default;fillColor=default;" connectable="0" vertex="1" parent="OsRb2LOzav058uSs1qAo-101">
          <mxGeometry x="1" relative="1" as="geometry">
            <mxPoint x="-20" y="-20" as="offset" />
          </mxGeometry>
        </mxCell>
        <mxCell id="OsRb2LOzav058uSs1qAo-104" value="" style="endArrow=none;html=1;edgeStyle=orthogonalEdgeStyle;rounded=0;fontFamily=Helvetica;fontSize=12;fontColor=default;exitX=-0.012;exitY=0.632;exitDx=0;exitDy=0;exitPerimeter=0;entryX=1;entryY=0.75;entryDx=0;entryDy=0;" edge="1" parent="WIyWlLk6GJQsqaUBKTNV-1" source="OsRb2LOzav058uSs1qAo-57" target="OsRb2LOzav058uSs1qAo-63">
          <mxGeometry relative="1" as="geometry">
            <mxPoint x="750" y="40" as="sourcePoint" />
            <mxPoint x="520" y="40" as="targetPoint" />
            <Array as="points" />
          </mxGeometry>
        </mxCell>
        <mxCell id="OsRb2LOzav058uSs1qAo-108" value="" style="endArrow=block;endSize=16;endFill=0;html=1;rounded=0;fontFamily=Helvetica;fontSize=12;fontColor=default;" edge="1" parent="WIyWlLk6GJQsqaUBKTNV-1">
          <mxGeometry width="160" relative="1" as="geometry">
            <mxPoint x="1080" y="280" as="sourcePoint" />
            <mxPoint x="600" y="280.02" as="targetPoint" />
            <Array as="points" />
          </mxGeometry>
        </mxCell>
        <mxCell id="OsRb2LOzav058uSs1qAo-109" value="" style="endArrow=diamondThin;endFill=1;endSize=24;html=1;rounded=0;fontFamily=Helvetica;fontSize=12;fontColor=default;entryX=0;entryY=0.25;entryDx=0;entryDy=0;exitX=1.006;exitY=0.369;exitDx=0;exitDy=0;exitPerimeter=0;" edge="1" parent="WIyWlLk6GJQsqaUBKTNV-1" source="OsRb2LOzav058uSs1qAo-63" target="OsRb2LOzav058uSs1qAo-67">
          <mxGeometry width="160" relative="1" as="geometry">
            <mxPoint x="610" y="-190" as="sourcePoint" />
            <mxPoint x="920" y="-140" as="targetPoint" />
            <Array as="points">
              <mxPoint x="830" y="-160" />
            </Array>
          </mxGeometry>
        </mxCell>
        <mxCell id="OsRb2LOzav058uSs1qAo-110" value="" style="endArrow=none;html=1;edgeStyle=orthogonalEdgeStyle;rounded=0;fontFamily=Helvetica;fontSize=12;fontColor=default;entryX=0.445;entryY=1.014;entryDx=0;entryDy=0;entryPerimeter=0;exitX=1.013;exitY=0.421;exitDx=0;exitDy=0;exitPerimeter=0;" edge="1" parent="WIyWlLk6GJQsqaUBKTNV-1" source="OsRb2LOzav058uSs1qAo-57" target="OsRb2LOzav058uSs1qAo-67">
          <mxGeometry relative="1" as="geometry">
            <mxPoint x="980" as="sourcePoint" />
            <mxPoint x="910" y="-20" as="targetPoint" />
            <Array as="points">
              <mxPoint x="1178" />
            </Array>
          </mxGeometry>
        </mxCell>
        <mxCell id="OsRb2LOzav058uSs1qAo-111" value="parent" style="edgeLabel;resizable=0;html=1;align=left;verticalAlign=bottom;strokeColor=default;fontFamily=Helvetica;fontSize=12;fontColor=default;fillColor=default;" connectable="0" vertex="1" parent="OsRb2LOzav058uSs1qAo-110">
          <mxGeometry x="-1" relative="1" as="geometry">
            <mxPoint x="28" y="-10" as="offset" />
          </mxGeometry>
        </mxCell>
        <mxCell id="OsRb2LOzav058uSs1qAo-112" value="child" style="edgeLabel;resizable=0;html=1;align=right;verticalAlign=bottom;strokeColor=default;fontFamily=Helvetica;fontSize=12;fontColor=default;fillColor=default;" connectable="0" vertex="1" parent="OsRb2LOzav058uSs1qAo-110">
          <mxGeometry x="1" relative="1" as="geometry">
            <mxPoint x="-48" y="28" as="offset" />
          </mxGeometry>
        </mxCell>
      </root>
    </mxGraphModel>
  </diagram>
</mxfile>
